<svg width="25" height="24" viewBox="0 0 25 24" fill="none" xmlns="http://www.w3.org/2000/svg">
<rect x="0.799805" width="24" height="24" rx="12" fill="#3DADFF" fill-opacity="0.25"/>
<path d="M10.8125 9.56631C12.2708 9.56633 10.8125 4.80614 13 5.50869C15.1875 6.21131 19.5625 8.85705 19.5625 13.2353C19.5625 16.4903 17.6259 18.5622 15.7119 18.5624C14.8233 18.5624 14.2759 18.285 14.5947 17.8837C16.5221 15.4585 15.9956 13.2627 14.9883 12.2421C14.3172 11.5622 13.8067 11.3163 13.6035 12.2421C12.8003 15.6645 11.8341 14.0496 10.8066 13.7196C10.0103 13.4642 9.44547 15.6486 11.4961 17.8837C11.9064 18.3309 11.5417 18.5624 10.8125 18.5624C7.89586 18.5624 6.43752 15.7998 6.4375 13.2353C6.4375 10.4262 8.61801 8.19131 9.34766 8.19033C9.93099 8.19033 10.0833 9.56631 10.8125 9.56631Z" fill="#3DADFF"/>
</svg>
