<svg width="25" height="24" viewBox="0 0 25 24" fill="none" xmlns="http://www.w3.org/2000/svg">
<rect x="0.799805" width="24" height="24" rx="12" fill="#3DADFF" fill-opacity="0.25"/>
<g clip-path="url(#clip0_732_198)">
<path d="M12.2222 9.06396H7.55556C6.82226 9.06396 6.45561 9.06396 6.22781 9.28781C6 9.51168 6 9.87199 6 10.5926V11.3569C6 12.0775 6 12.4378 6.22781 12.6616C6.45561 12.8855 6.82226 12.8855 7.55556 12.8855H12.2222V9.06396Z" fill="#3DADFF"/>
<path d="M8.3335 14.4141V17.4714C8.3335 18.192 8.3335 18.5523 8.5613 18.7761C8.7891 19 9.15576 19 9.88904 19H12.2224V14.4141H8.3335Z" fill="#3DADFF"/>
<path d="M13.7778 19H16.1112C16.8444 19 17.2111 19 17.4389 18.7761C17.6667 18.5523 17.6667 18.192 17.6667 17.4714V14.4141H13.7778V19Z" fill="#3DADFF"/>
<path d="M18.4445 12.8855C19.1778 12.8855 19.5444 12.8855 19.7722 12.6616C20.0001 12.4378 20.0001 12.0775 20.0001 11.3569V10.5926C20.0001 9.87199 20.0001 9.51168 19.7722 9.28781C19.5444 9.06396 19.1778 9.06396 18.4445 9.06396H13.7778V12.8855H18.4445Z" fill="#3DADFF"/>
<path d="M18.4444 6.49008V6.3509C18.4444 5.42954 17.5259 4.77895 16.6364 5.07031C15.5237 5.43478 14.5127 6.04883 13.6833 6.86382L13 7.53531V8.29964H15.8587C16.0259 8.29964 16.192 8.27314 16.3506 8.22118L17.4354 7.86584C18.038 7.66845 18.4444 7.11428 18.4444 6.49008Z" fill="#3DADFF"/>
<path d="M7.55566 6.49008V6.3509C7.55566 5.42954 8.47421 4.77895 9.36369 5.07031C10.4764 5.43478 11.4874 6.04883 12.3168 6.86382L13.0001 7.53531V8.29964H10.1414C9.97422 8.29964 9.80814 8.27314 9.64952 8.22118L8.56473 7.86584C7.96212 7.66845 7.55566 7.11428 7.55566 6.49008Z" fill="#3DADFF"/>
</g>
<defs>
<clipPath id="clip0_732_198">
<rect width="14" height="14" fill="white" transform="translate(6 5)"/>
</clipPath>
</defs>
</svg>
