<svg width="25" height="24" viewBox="0 0 25 24" fill="none" xmlns="http://www.w3.org/2000/svg">
<rect x="0.799805" width="24" height="24" rx="12" fill="#3DADFF" fill-opacity="0.25"/>
<g clip-path="url(#clip0_732_238)">
<path d="M13 6C10.2737 6 8 6.9354 8 8.4C8 9.8646 10.2737 10.8 13 10.8C15.7263 10.8 18 9.8646 18 8.4C18 6.9354 15.7263 6 13 6ZM8 10.575V12C8 13.4646 10.2737 14.4 13 14.4C15.7263 14.4 18 13.4646 18 12V10.575C16.8663 11.469 15.0987 12 13 12C10.9012 12 9.13375 11.469 8 10.575ZM8 14.175V15.6C8 17.0646 10.2737 18 13 18C15.7263 18 18 17.0646 18 15.6V14.175C16.8663 15.069 15.0987 15.6 13 15.6C10.9012 15.6 9.13375 15.069 8 14.175Z" fill="#3DADFF"/>
</g>
<defs>
<clipPath id="clip0_732_238">
<rect width="10" height="12" fill="white" transform="translate(8 6)"/>
</clipPath>
</defs>
</svg>
