<svg width="12" height="12" viewBox="0 0 12 12" fill="none" xmlns="http://www.w3.org/2000/svg">
<path d="M6 5.14286H6.85714V6H6V5.14286ZM5.14286 5.14286H6V6H5.14286V5.14286ZM5.14286 6H6V6.85714H5.14286V6ZM6 6H6.85714V6.85714H6V6ZM5.14286 4.28571H6V5.14286H5.14286V4.28571ZM5.14286 3.42857H6V4.28571H5.14286V3.42857ZM6 3.42857H6.85714V4.28571H6V3.42857ZM6 4.28571H6.85714V5.14286H6V4.28571ZM6 6.85714H6.85714V7.71429H6V6.85714ZM5.14286 6.85714H6V7.71429H5.14286V6.85714ZM5.14286 7.71429H6V8.57143H5.14286V7.71429ZM6 7.71429H6.85714V8.57143H6V7.71429ZM4.28572 3.42857H5.14286V4.28571H4.28572V3.42857ZM3.42857 3.42857H4.28572V4.28571H3.42857V3.42857ZM3.42857 4.28571H4.28572V5.14286H3.42857V4.28571ZM3.42857 5.14286H4.28572V6H3.42857V5.14286ZM4.28572 5.14286H5.14286V6H4.28572V5.14286ZM4.28572 4.28571H5.14286V5.14286H4.28572V4.28571ZM4.28572 6H5.14286V6.85714H4.28572V6ZM3.42857 6H4.28572V6.85714H3.42857V6ZM3.42857 6.85714H4.28572V7.71429H3.42857V6.85714ZM3.42857 7.71429H4.28572V8.57143H3.42857V7.71429ZM4.28572 7.71429H5.14286V8.57143H4.28572V7.71429ZM4.28572 6.85714H5.14286V7.71429H4.28572V6.85714ZM6.85714 7.71429H7.71429V8.57143H6.85714V7.71429ZM7.71429 7.71429H8.57143V8.57143H7.71429V7.71429ZM7.71429 6.85714H8.57143V7.71429H7.71429V6.85714ZM7.71429 6H8.57143V6.85714H7.71429V6ZM7.71429 5.14286H8.57143V6H7.71429V5.14286ZM7.71429 4.28571H8.57143V5.14286H7.71429V4.28571ZM7.71429 3.42857H8.57143V4.28571H7.71429V3.42857ZM6.85714 3.42857H7.71429V4.28571H6.85714V3.42857ZM6.85714 4.28571H7.71429V5.14286H6.85714V4.28571ZM6.85714 5.14286H7.71429V6H6.85714V5.14286ZM6.85714 6H7.71429V6.85714H6.85714V6ZM6.85714 6.85714H7.71429V7.71429H6.85714V6.85714ZM8.57143 2.57143H9.42857V3.42857H8.57143V2.57143ZM8.57143 1.71428H9.42857V2.57143H8.57143V1.71428ZM9.42857 1.71428H10.2857V2.57143H9.42857V1.71428ZM9.42857 2.57143H10.2857V3.42857H9.42857V2.57143ZM5.14286 2.57143H6V3.42857H5.14286V2.57143ZM5.14286 1.71428H6V2.57143H5.14286V1.71428ZM6 1.71428H6.85714V2.57143H6V1.71428ZM6 2.57143H6.85714V3.42857H6V2.57143ZM5.14286 0.857143H6V1.71428H5.14286V0.857143ZM5.14286 0H6V0.857143H5.14286V0ZM6 0H6.85714V0.857143H6V0ZM6 0.857143H6.85714V1.71428H6V0.857143ZM2.57143 2.57143H3.42857V3.42857H2.57143V2.57143ZM2.57143 1.71428H3.42857V2.57143H2.57143V1.71428ZM1.71429 1.71428H2.57143V2.57143H1.71429V1.71428ZM1.71429 2.57143H2.57143V3.42857H1.71429V2.57143ZM2.57143 5.14286H3.42857V6H2.57143V5.14286ZM1.71429 5.14286H2.57143V6H1.71429V5.14286ZM1.71429 6H2.57143V6.85714H1.71429V6ZM2.57143 6H3.42857V6.85714H2.57143V6ZM0.857143 6H1.71429V6.85714H0.857143V6ZM0 6H0.857143V6.85714H0V6ZM0 5.14286H0.857143V6H0V5.14286ZM0.857143 5.14286H1.71429V6H0.857143V5.14286ZM2.57143 8.57143H3.42857V9.42857H2.57143V8.57143ZM1.71429 8.57143H2.57143V9.42857H1.71429V8.57143ZM1.71429 9.42857H2.57143V10.2857H1.71429V9.42857ZM2.57143 9.42857H3.42857V10.2857H2.57143V9.42857ZM5.14286 8.57143H6V9.42857H5.14286V8.57143ZM6 8.57143H6.85714V9.42857H6V8.57143ZM6 9.42857H6.85714V10.2857H6V9.42857ZM6 10.2857H6.85714V11.1429H6V10.2857ZM5.14286 10.2857H6V11.1429H5.14286V10.2857ZM5.14286 9.42857H6V10.2857H5.14286V9.42857ZM5.14286 11.1429H6V12H5.14286V11.1429ZM6 11.1429H6.85714V12H6V11.1429ZM8.57143 8.57143H9.42857V9.42857H8.57143V8.57143ZM9.42857 8.57143H10.2857V9.42857H9.42857V8.57143ZM9.42857 9.42857H10.2857V10.2857H9.42857V9.42857ZM8.57143 9.42857H9.42857V10.2857H8.57143V9.42857ZM8.57143 6H9.42857V6.85714H8.57143V6ZM9.42857 6H10.2857V6.85714H9.42857V6ZM9.42857 5.14286H10.2857V6H9.42857V5.14286ZM8.57143 5.14286H9.42857V6H8.57143V5.14286ZM10.2857 5.14286H11.1429V6H10.2857V5.14286ZM11.1429 5.14286H12V6H11.1429V5.14286ZM11.1429 6H12V6.85714H11.1429V6ZM10.2857 6H11.1429V6.85714H10.2857V6ZM2.57143 3.42857H3.42857V4.28571H2.57143V3.42857ZM3.42857 2.57143H4.28572V3.42857H3.42857V2.57143ZM7.71429 8.57143H8.57143V9.42857H7.71429V8.57143ZM8.57143 7.71429H9.42857V8.57143H8.57143V7.71429ZM8.57143 3.42857H9.42857V4.28571H8.57143V3.42857ZM7.71429 2.57143H8.57143V3.42857H7.71429V2.57143ZM2.57143 7.71429H3.42857V8.57143H2.57143V7.71429ZM3.42857 8.57143H4.28572V9.42857H3.42857V8.57143Z" fill="#0F91D5"/>
</svg>
