<svg width="24" height="24" viewBox="0 0 24 24" fill="none" xmlns="http://www.w3.org/2000/svg">
<path d="M12.0238 0H11.9691C5.35876 0 0 5.36035 0 11.9727V12.0273C0 18.6397 5.35876 24 11.9691 24H12.0238C18.6342 24 23.9929 18.6397 23.9929 12.0273V11.9727C23.9929 5.36035 18.6342 0 12.0238 0Z" fill="white" fill-opacity="0.16"/>
<path d="M6.29556 11.9445C6.3214 11.9309 6.34725 11.9181 6.37243 11.9059C6.81035 11.6935 7.25407 11.4947 7.69715 11.2958C7.72104 11.2958 7.76108 11.2667 7.78368 11.2573C7.81792 11.2417 7.85215 11.2268 7.88639 11.2113C7.95227 11.1815 8.01815 11.1524 8.08338 11.1226C8.21515 11.0638 8.34625 11.005 8.47801 10.9461L9.26663 10.5923C9.79239 10.357 10.3188 10.1209 10.8445 9.8855C11.3703 9.65011 11.8967 9.41405 12.4224 9.17866C12.9482 8.94327 13.4746 8.70721 14.0003 8.47182C14.5261 8.23643 15.0525 8.00037 15.5782 7.76498C15.6951 7.71222 15.8217 7.63375 15.947 7.61075C16.0523 7.59114 16.155 7.55326 16.2609 7.53229C16.4618 7.49239 16.6833 7.47615 16.8758 7.56341C16.9423 7.59385 17.0037 7.63646 17.0547 7.6899C17.2989 7.94287 17.2646 8.35818 17.213 8.71397C16.8532 11.1937 16.4934 13.674 16.133 16.1537C16.084 16.494 16.0168 16.8673 15.7604 17.0824C15.5434 17.2644 15.2346 17.2847 14.9666 17.2076C14.6985 17.1298 14.4621 16.9668 14.2303 16.8065C13.2685 16.1395 12.3062 15.4726 11.3445 14.8057C11.1158 14.6474 10.8613 14.4404 10.8639 14.1529C10.8652 13.9798 10.964 13.8256 11.0648 13.6882C11.9006 12.5465 13.1064 11.7618 14.0036 10.6728C14.1302 10.5193 14.2296 10.242 14.0559 10.1534C13.9525 10.1006 13.8337 10.1723 13.7394 10.2406C12.5535 11.103 11.3684 11.9661 10.1825 12.8285C9.79563 13.1099 9.39001 13.3994 8.92368 13.4684C8.50644 13.5306 8.08662 13.4089 7.68294 13.2844C7.34449 13.1803 7.00669 13.0734 6.67018 12.9631C6.49127 12.905 6.30654 12.8421 6.16833 12.7102C6.03011 12.5783 5.95067 12.3564 6.03399 12.1805C6.08631 12.0703 6.18771 12.0006 6.29429 11.9438L6.29556 11.9445Z" fill="#FEFFFC"/>
</svg>
